name C:\Users\u0101727\Documents\MyRepositories\upper-imu-dc\Results\main_tracking\Case_58\kinematics.mot
datacolumns 10
datarows 42
range 4.62000000 5.03000000
endheader 
time	clav_prot	clav_elev	scapula_abduction	scapula_elevation	scapula_upward_rot	scapula_winging	plane_elv	shoulder_elv	axial_rot	
          4.62000000	        -32.84601196	          8.34371455	        -12.03089348	         -1.52194596	         44.03862845	         -6.48131687	         -4.99219705	         63.99825067	          7.82577258	
          4.63000000	        -32.97432860	          8.38930173	        -12.00375342	         -1.53585317	         44.35756034	         -6.58425052	         -4.86799410	         64.18625837	          7.90383588	
          4.64000000	        -33.10198987	          8.43465548	        -11.97844548	         -1.54883344	         44.67232679	         -6.68595366	         -4.73995844	         64.37359516	          7.97970115	
          4.65000000	        -33.22897854	          8.47986478	        -11.95511424	         -1.56083108	         44.98278404	         -6.78643429	         -4.60803814	         64.56021988	          8.05363816	
          4.66000000	        -33.35529918	          8.52498999	        -11.93383740	         -1.57182462	         45.28889971	         -6.88572105	         -4.47225793	         64.74606851	          8.12572134	
          4.67000000	        -33.48097459	          8.57006048	        -11.91462338	         -1.58182650	         45.59074692	         -6.98385943	         -4.33271536	         64.93105470	          8.19583681	
          4.68000000	        -33.60604087	          8.61507607	        -11.89741416	         -1.59087920	         45.88849118	         -7.08090718	         -4.18957037	         65.11507298	          8.26370639	
          4.69000000	        -33.73054168	          8.66001224	        -11.88209355	         -1.59904845	         46.18237079	         -7.17692945	         -4.04302859	         65.29800443	          8.32892738	
          4.70000000	        -33.85452200	          8.70482810	        -11.86849967	         -1.60641413	         46.47267280	         -7.27199381	         -3.89332018	         65.47972386	          8.39102360	
          4.71000000	        -33.97802185	          8.74947539	        -11.85643927	         -1.61306071	         46.75970716	         -7.36616552	         -3.74067750	         65.66010757	          8.44950058	
          4.72000000	        -34.10107035	          8.79390678	        -11.84570152	         -1.61906853	         47.04378193	         -7.45950319	         -3.58531501	         65.83904042	          8.50389741	
          4.73000000	        -34.22368052	          8.83808215	        -11.83606968	         -1.62450715	         47.32518182	         -7.55205510	         -3.42741367	         66.01642154	          8.55382971	
          4.74000000	        -34.34584550	          8.88197262	        -11.82733046	         -1.62943102	         47.60415131	         -7.64385631	         -3.26711054	         66.19216809	          8.59902173	
          4.75000000	        -34.46753650	          8.92556236	        -11.81928175	         -1.63387735	         47.88088226	         -7.73492690	         -3.10449307	         66.36621690	          8.63932780	
          4.76000000	        -34.58870292	          8.96884863	        -11.81173984	         -1.63786587	         48.15550582	         -7.82527122	         -2.93959717	         66.53852386	          8.67474500	
          4.77000000	        -34.70927485	          9.01184022	        -11.80454657	         -1.64140033	         48.42808820	         -7.91487838	         -2.77240850	         66.70906117	          8.70541775	
          4.78000000	        -34.82916742	          9.05455456	        -11.79757621	         -1.64447138	         48.69863019	         -8.00372381	         -2.60286667	         66.87781277	          8.73163495	
          4.79000000	        -34.94828690	          9.09701410	        -11.79074098	         -1.64706038	         48.96707121	         -8.09177190	         -2.43087219	         67.04476919	          8.75381913	
          4.80000000	        -35.06653757	          9.13924283	        -11.78399391	         -1.64914365	         49.23329817	         -8.17897965	         -2.25629584	         67.20992381	          8.77250765	
          4.81000000	        -35.18382893	          9.18126344	        -11.77732848	         -1.65069644	         49.49715924	         -8.26530120	         -2.07898992	         67.37327158	          8.78832672	
          4.82000000	        -35.30008236	          9.22309554	        -11.77077458	         -1.65169634	         49.75848123	         -8.35069262	         -1.89880083	         67.53481041	          8.80195992	
          4.83000000	        -35.41523630	          9.26475503	        -11.76439104	         -1.65212574	         50.01708866	         -8.43511653	         -1.71558184	         67.69454521	          8.81411378	
          4.84000000	        -35.52924922	          9.30625440	        -11.75825525	         -1.65197318	         50.27282233	         -8.51854563	         -1.52920495	         67.85249349	          8.82548370	
          4.85000000	        -35.64209988	          9.34760411	        -11.75245080	         -1.65123347	         50.52555511	         -8.60096500	         -1.33957094	         68.00869201	          8.83672302	
          4.86000000	        -35.75378506	          9.38881443	        -11.74705478	         -1.64990671	         50.77520351	         -8.68237271	         -1.14661716	         68.16320330	          8.84841758	
          4.87000000	        -35.86431537	          9.42989753	        -11.74212607	         -1.64799672	         51.02173419	         -8.76277892	         -0.95032297	         68.31612135	          8.86106725	
          4.88000000	        -35.97371027	          9.47086921	        -11.73769620	         -1.64550912	         51.26516576	         -8.84220408	         -0.75071271	         68.46757581	          8.87507449	
          4.89000000	        -36.08199343	          9.51174959	        -11.73376350	         -1.64244998	         51.50556657	         -8.92067635	         -0.54785674	         68.61773396	          8.89073934	
          4.90000000	        -36.18918907	          9.55256202	        -11.73029113	         -1.63882559	         51.74304954	         -8.99822895	         -0.34187069	         68.76679929	          8.90825934	
          4.91000000	        -36.29532004	          9.59332931	        -11.72720872	         -1.63464407	         51.97776430	         -9.07489726	         -0.13291383	         68.91500567	          8.92773277	
          4.92000000	        -36.40040724	          9.63406712	        -11.72441735	         -1.62991896	         52.20988726	         -9.15071593	          0.07881317	         69.06260628	          8.94916424	
          4.93000000	        -36.50447028	          9.67477520	        -11.72179705	         -1.62467439	         52.43960978	         -9.22571591	          0.29307128	         69.20985834	          8.97247226	
          4.94000000	        -36.60752832	          9.71542840	        -11.71921564	         -1.61895040	         52.66712519	         -9.29992163	          0.50958744	         69.35700561	          8.99749938	
          4.95000000	        -36.70960051	          9.75596953	        -11.71653781	         -1.61280701	         52.89261558	         -9.37334851	          0.72806069	         69.50426176	          9.02402507	
          4.96000000	        -36.81070540	          9.79630599	        -11.71363319	         -1.60632589	         53.11623940	         -9.44600104	          0.94817006	         69.65179722	          9.05178123	
          4.97000000	        -36.91085928	          9.83631075	        -11.71038256	         -1.59960905	         53.33812125	         -9.51787156	          1.16958377	         69.79973089	          9.08046870	
          4.98000000	        -37.01007353	          9.87582752	        -11.70668147	         -1.59277495	         53.55834471	         -9.58893992	          1.39196864	         69.94812725	          9.10977298	
          4.99000000	        -37.10835189	          9.91467892	        -11.70244125	         -1.58595283	         53.77694959	         -9.65917401	          1.61499864	         70.09699840	          9.13937655	
          5.00000000	        -37.20568815	          9.95267642	        -11.69758712	         -1.57927607	         53.99393407	         -9.72853129	          1.83836130	         70.24631046	          9.16896562	
          5.01000000	        -37.30206477	          9.98963067	        -11.69205395	         -1.57287578	         54.20926204	         -9.79696115	          2.06176117	         70.39599296	          9.19823007	
          5.02000000	        -37.39745268	         10.02536108	        -11.68577981	         -1.56687499	         54.42287475	         -9.86440780	          2.28491990	         70.54594991	          9.22685620	
          5.03000000	        -37.49181191	         10.05970373	        -11.67869805	         -1.56138422	         54.63470541	         -9.93081342	          2.50757322	         70.69607107	          9.25451350	
